# xmcd
#
# Track frame offsets: 
#        150
#        26090
#        59440
#        81460
#        114140
#        138015
#
# Disc length: 2236 seconds
#
# Revision: 4
# Processed by: cddbd v1.5.2PL0 Copyright (c) Steve Scherf et al.
# Submitted via: ExactAudioCopyFreeDBPlugin 1.0
#
DISCID=4708ba06
DTITLE=Various Artist - Blues Deluxe
DYEAR=1989
DGENRE=Blues
TTITLE0=The Lonnie Brooks Blues Band - Sweet Home Chicago
TTITLE1=The Son Seals Blues Band - Don't Throw Your Love on Me So Stro
TTITLE1=ng
TTITLE2=Mighty Joe Young - Need a Friend
TTITLE3=Muddy Waters - Clouds in My Heart
TTITLE4=Koko Taylor And Her Blues Machine - Hey Bartender
TTITLE5=Willie Dixon And The Chicago Blues All Stars - Wang Dang Doodl
TTITLE5=e
EXTD=YEAR: 1989 ID3G: 0
EXTT0=The Lonnie Brooks Blues Band
EXTT1=The Son Seals Blues Band
EXTT2=Mighty Joe Young
EXTT3=Muddy Waters
EXTT4=Koko Taylor and Her Blues Machine
EXTT5=Willie Dixon and the Chicago Blues Allstars
PLAYORDER=
